<svg data-v-423bf9ae="" xmlns="http://www.w3.org/2000/svg" viewBox="0 0 353 90" class="iconLeft"><!----><!----><!----><g data-v-423bf9ae="" id="6e13653d-acaf-4005-98ca-23bedb264bcd" fill="hsl(0, 0%, 95%)" transform="matrix(4.294917598649483,0,0,4.294917598649483,127.67273556560048,5.1216899663224)"><path d="M4.42 13.75L4.42 13.75Q3.23 13.75 2.11 13.45L2.11 13.45L2.11 13.45Q0.99 13.16 0.29 12.67L0.29 12.67L1.20 10.63L1.20 10.63Q1.86 11.06 2.73 11.33L2.73 11.33L2.73 11.33Q3.60 11.59 4.44 11.59L4.44 11.59L4.44 11.59Q6.03 11.59 6.03 10.79L6.03 10.79L6.03 10.79Q6.03 10.37 5.58 10.17L5.58 10.17L5.58 10.17Q5.12 9.97 4.12 9.74L4.12 9.74L4.12 9.74Q3.01 9.51 2.27 9.23L2.27 9.23L2.27 9.23Q1.53 8.96 0.99 8.36L0.99 8.36L0.99 8.36Q0.46 7.76 0.46 6.73L0.46 6.73L0.46 6.73Q0.46 5.84 0.95 5.12L0.95 5.12L0.95 5.12Q1.44 4.40 2.42 3.98L2.42 3.98L2.42 3.98Q3.39 3.56 4.80 3.56L4.80 3.56L4.80 3.56Q5.77 3.56 6.71 3.77L6.71 3.77L6.71 3.77Q7.64 3.99 8.36 4.41L8.36 4.41L7.50 6.47L7.50 6.47Q6.10 5.71 4.79 5.71L4.79 5.71L4.79 5.71Q3.96 5.71 3.58 5.96L3.58 5.96L3.58 5.96Q3.21 6.20 3.21 6.59L3.21 6.59L3.21 6.59Q3.21 6.99 3.65 7.18L3.65 7.18L3.65 7.18Q4.10 7.38 5.10 7.59L5.10 7.59L5.10 7.59Q6.22 7.83 6.95 8.10L6.95 8.10L6.95 8.10Q7.69 8.37 8.22 8.97L8.22 8.97L8.22 8.97Q8.76 9.56 8.76 10.58L8.76 10.58L8.76 10.58Q8.76 11.47 8.27 12.18L8.27 12.18L8.27 12.18Q7.78 12.89 6.80 13.32L6.80 13.32L6.80 13.32Q5.82 13.75 4.42 13.75L4.42 13.75ZM14.85 5.84L14.85 5.84Q16.27 5.84 17.13 6.68L17.13 6.68L17.13 6.68Q17.99 7.52 17.99 9.21L17.99 9.21L17.99 13.55L15.33 13.55L15.33 9.65L15.33 9.65Q15.33 8.09 14.08 8.09L14.08 8.09L14.08 8.09Q13.40 8.09 12.98 8.54L12.98 8.54L12.98 8.54Q12.57 8.99 12.57 9.88L12.57 9.88L12.57 13.55L9.91 13.55L9.91 3.16L12.57 3.16L12.57 6.66L12.57 6.66Q13.01 6.26 13.59 6.05L13.59 6.05L13.59 6.05Q14.18 5.84 14.85 5.84L14.85 5.84ZM19.66 13.55L19.66 5.96L22.32 5.96L22.32 13.55L19.66 13.55ZM20.99 5.12L20.99 5.12Q20.26 5.12 19.81 4.72L19.81 4.72L19.81 4.72Q19.36 4.31 19.36 3.71L19.36 3.71L19.36 3.71Q19.36 3.11 19.81 2.70L19.81 2.70L19.81 2.70Q20.26 2.30 20.99 2.30L20.99 2.30L20.99 2.30Q21.71 2.30 22.16 2.68L22.16 2.68L22.16 2.68Q22.61 3.07 22.61 3.67L22.61 3.67L22.61 3.67Q22.61 4.30 22.16 4.71L22.16 4.71L22.16 4.71Q21.71 5.12 20.99 5.12L20.99 5.12ZM28.81 5.84L28.81 5.84Q29.85 5.84 30.69 6.32L30.69 6.32L30.69 6.32Q31.54 6.80 32.04 7.69L32.04 7.69L32.04 7.69Q32.54 8.58 32.54 9.76L32.54 9.76L32.54 9.76Q32.54 10.93 32.04 11.82L32.04 11.82L32.04 11.82Q31.54 12.71 30.69 13.20L30.69 13.20L30.69 13.20Q29.85 13.68 28.81 13.68L28.81 13.68L28.81 13.68Q27.48 13.68 26.70 12.88L26.70 12.88L26.70 16.27L24.04 16.27L24.04 5.96L26.57 5.96L26.57 6.72L26.57 6.72Q27.31 5.84 28.81 5.84L28.81 5.84ZM28.25 11.56L28.25 11.56Q28.95 11.56 29.40 11.08L29.40 11.08L29.40 11.08Q29.85 10.60 29.85 9.76L29.85 9.76L29.85 9.76Q29.85 8.92 29.40 8.43L29.40 8.43L29.40 8.43Q28.95 7.95 28.25 7.95L28.25 7.95L28.25 7.95Q27.55 7.95 27.10 8.43L27.10 8.43L27.10 8.43Q26.66 8.92 26.66 9.76L26.66 9.76L26.66 9.76Q26.66 10.60 27.10 11.08L27.10 11.08L27.10 11.08Q27.55 11.56 28.25 11.56L28.25 11.56ZM38.54 5.84L38.54 5.84Q39.58 5.84 40.43 6.32L40.43 6.32L40.43 6.32Q41.27 6.80 41.77 7.69L41.77 7.69L41.77 7.69Q42.27 8.58 42.27 9.76L42.27 9.76L42.27 9.76Q42.27 10.93 41.77 11.82L41.77 11.82L41.77 11.82Q41.27 12.71 40.43 13.20L40.43 13.20L40.43 13.20Q39.58 13.68 38.54 13.68L38.54 13.68L38.54 13.68Q37.21 13.68 36.43 12.88L36.43 12.88L36.43 16.27L33.77 16.27L33.77 5.96L36.30 5.96L36.30 6.72L36.30 6.72Q37.04 5.84 38.54 5.84L38.54 5.84ZM37.98 11.56L37.98 11.56Q38.68 11.56 39.13 11.08L39.13 11.08L39.13 11.08Q39.58 10.60 39.58 9.76L39.58 9.76L39.58 9.76Q39.58 8.92 39.13 8.43L39.13 8.43L39.13 8.43Q38.68 7.95 37.98 7.95L37.98 7.95L37.98 7.95Q37.28 7.95 36.83 8.43L36.83 8.43L36.83 8.43Q36.39 8.92 36.39 9.76L36.39 9.76L36.39 9.76Q36.39 10.60 36.83 11.08L36.83 11.08L36.83 11.08Q37.28 11.56 37.98 11.56L37.98 11.56ZM46.03 6.87L46.03 6.87Q46.44 6.36 47.09 6.10L47.09 6.10L47.09 6.10Q47.74 5.84 48.58 5.84L48.58 5.84L48.58 8.23L48.58 8.23Q48.22 8.19 47.98 8.19L47.98 8.19L47.98 8.19Q47.12 8.19 46.64 8.65L46.64 8.65L46.64 8.65Q46.16 9.11 46.16 10.07L46.16 10.07L46.16 13.55L43.50 13.55L43.50 5.96L46.03 5.96L46.03 6.87ZM50.82 13.68L50.82 13.68Q50.15 13.68 49.69 13.23L49.69 13.23L49.69 13.23Q49.22 12.78 49.22 12.10L49.22 12.10L49.22 12.10Q49.22 11.40 49.68 10.96L49.68 10.96L49.68 10.96Q50.13 10.53 50.82 10.53L50.82 10.53L50.82 10.53Q51.52 10.53 51.97 10.96L51.97 10.96L51.97 10.96Q52.42 11.40 52.42 12.10L52.42 12.10L52.42 12.10Q52.42 12.78 51.96 13.23L51.96 13.23L51.96 13.23Q51.51 13.68 50.82 13.68L50.82 13.68Z"></path></g><!----><g data-v-423bf9ae="" id="2ff0efb5-ada6-49b4-90b6-b3ed9565ce12" transform="matrix(1.1212158366718468,0,0,1.1212158366718468,-16.3265812422014,-2.286554247833884)" stroke="none" fill="hsl(120, 92%, 35%)"><path d="M68.666 57.526a.746.746 0 0 1-.027.42l-6.774 15.142.057.502 9.74 8.733h4.057l-7.78-10.551 12.79-16.092-6.464-9.908 11.643 6.129 7.921-.336 3.974 3.583v24.487H102V54.588l-9.487-6.466a.56.56 0 0 1-.224-.335l-.896-3.442c.363-.085.698-.197 1.063-.308l.028.027.84 3.219 9.655 6.632 3.776 4.114-3.638 7.054v7.977l9.432-15.674c-4.114-5.064-6.24-9.039-6.381-11.922-.028-.42-.028-.812.056-1.176.141-.392.279-.783.365-1.147.308-1.287.139-2.463-.504-3.498l-.28-9.068-.363-.671c-.029-.056-.058-.112-.058-.14-.056-.028-.083-.084-.111-.14l-3.302-6.073c.252-.196.56-.392.922-.644l3.22 5.961c1.763-6.913.56-13.294-3.638-19.199l-6.94-2.854c-.142-.084-.253-.168-.308-.309a.372.372 0 0 1 0-.419.549.549 0 0 1 .308-.308.378.378 0 0 1 .418 0l5.963 2.463V5.219c-4.786-2.239-9.965-2.211-15.534.056v.084c.028.028.028.084.028.112 0 0 0 .028.027.056l6.633 23.845v.14H62.033l-2.855 3.247c-1.987.335-4.113.504-6.381.504-5.905 0-10.915-1.204-15.085-3.583-4.17-2.379-6.241-5.233-6.241-8.592 0-3.358 2.071-6.241 6.241-8.62 3.778-2.155 8.285-3.359 13.518-3.555a56.19 56.19 0 0 0-7.389-.476c-7.864 0-14.553 1.456-20.123 4.395-.867.476-1.679.952-2.435 1.455-3.918 2.631-5.877 5.681-5.877 9.18 0 3.47 1.959 6.521 5.877 9.151.755.475 1.567.952 2.435 1.427 5.57 2.939 12.259 4.422 20.123 4.422 4.114 0 7.893-.393 11.363-1.203l-3.694 4.198 16.987 15.841"></path><path d="M85.318 5.667v-.028l-.113-.364-4.981-2.911 1.765 3.834h-4.506l3.189 5.038-8.297 10.807c.027.196-.099 1.171-.099 1.395l2.156 1.315 15.056-4.058-4.142-14.86c-.028-.084-.028-.14-.028-.168zm-3.219 7.78c.366 0 .674.084.926.28.279.196.418.448.418.728 0 .28-.139.531-.418.727-.252.196-.56.28-.926.28-.362 0-.67-.084-.923-.28-.252-.196-.393-.447-.393-.727 0-.28.141-.532.393-.728.253-.196.56-.28.923-.28zM60.717 73.087c0-.113.028-.224.055-.31l6.689-14.915L53.3 44.625l7.054 11.754L55.17 71.16l4.562 11.474 3.271-.333-2.286-9.214z"></path></g><!----></svg>